<?xml version="1.0" encoding="iso-8859-1"?>
<!-- Uploaded to: SVG Repo, www.svgrepo.com, Generator: SVG Repo Mixer Tools -->
<svg height="800px" width="800px" version="1.1" id="Layer_1" xmlns="http://www.w3.org/2000/svg" xmlns:xlink="http://www.w3.org/1999/xlink" 
	 viewBox="0 0 512 512" xml:space="preserve">
<g transform="translate(1 1)">
	<g>
		<polygon style="fill:#63D3FD;" points="186.733,383 255,331.8 323.267,383 323.267,451.267 255,502.467 186.733,451.267 		"/>
		<polygon style="fill:#63D3FD;" points="220.867,400.067 255,374.467 289.133,400.067 289.133,434.2 255,459.8 220.867,434.2 		"/>
	</g>
	<g>
		<path style="fill:#FFE100;" d="M468.333,75.8c-5.12,0-8.533-3.413-8.533-8.533c0-7.68,0-17.067-0.853-26.453
			c0-5.12,3.413-8.533,7.68-8.533s8.533,3.413,9.387,7.68c0.853,10.24,0.853,18.773,0.853,27.307
			C476.867,72.387,473.453,75.8,468.333,75.8z"/>
		<path style="fill:#FFE100;" d="M462.36,152.6h-0.853h-0.853c-5.12,0-8.533-4.267-8.533-8.533c0-2.56,0.853-5.12,3.413-6.827
			c0.853-5.973,1.707-12.8,2.56-19.627c0.853-4.267,4.267-7.68,9.387-7.68c4.267,0.853,7.68,4.267,7.68,9.387
			c-0.853,10.24-1.707,18.773-3.413,26.453C470.893,150.04,466.627,152.6,462.36,152.6z"/>
		<path style="fill:#FFE100;" d="M443.587,231.107c-0.853,0-1.707,0-2.56-0.853c-4.267-1.707-6.827-6.827-5.12-11.093
			c2.56-8.533,5.973-17.92,8.533-28.16c0.853-4.267,5.973-6.827,10.24-5.973c4.267,0.853,6.827,5.973,5.973,10.24
			c-2.56,11.093-5.973,20.48-8.533,29.013C450.413,228.547,447,231.107,443.587,231.107z"/>
		<path style="fill:#FFE100;" d="M411.16,300.227c-1.707,0-3.413,0-4.267-0.853c-4.267-2.56-5.12-7.68-2.56-11.947
			c4.267-6.827,8.533-13.653,11.947-21.333c2.56-4.267,6.827-5.973,11.093-3.413c4.267,2.56,5.973,7.68,3.413,11.093
			c-4.267,7.68-8.533,15.36-12.8,23.04C417.133,298.52,414.573,300.227,411.16,300.227z"/>
		<path style="fill:#FFE100;" d="M361.667,359.96c-2.56,0-5.12-0.853-6.827-2.56c-3.413-3.413-2.56-8.533,0.853-11.947
			c5.973-5.12,11.947-11.093,18.773-18.773c3.413-3.413,8.533-3.413,11.947-0.853c3.413,3.413,3.413,8.533,0.853,11.947
			c-6.827,7.68-13.653,14.507-20.48,20.48C365.933,359.96,364.227,359.96,361.667,359.96z"/>
		<path style="fill:#FFE100;" d="M165.4,359.96c-1.707,0-4.267-0.853-5.973-1.707c-6.827-5.973-13.653-12.8-20.48-20.48
			c-3.413-3.413-2.56-8.533,0.853-11.947c3.413-3.413,8.533-2.56,11.947,0.853c5.973,6.827,12.8,12.8,18.773,18.773
			c3.413,3.413,4.267,8.533,0.853,11.947C170.52,359.107,167.96,359.96,165.4,359.96z"/>
		<path style="fill:#FFE100;" d="M116.76,300.227c-2.56,0-5.973-1.707-7.68-4.267c-5.12-8.533-9.387-15.36-12.8-23.04
			c-1.707-4.267-0.853-9.387,3.413-11.093c4.267-2.56,9.387-0.853,11.093,3.413c3.413,6.827,7.68,13.653,11.947,21.333
			c2.56,4.267,0.853,9.387-2.56,11.947C119.32,300.227,117.613,300.227,116.76,300.227z"/>
		<path style="fill:#FFE100;" d="M84.333,231.107c-3.413,0-6.827-2.56-7.68-5.973c-3.413-10.24-6.827-19.627-9.387-29.013
			c-0.853-4.267,1.707-9.387,5.973-10.24c4.267-0.853,9.387,1.707,10.24,5.973c2.56,9.387,5.12,18.773,8.533,28.16
			c1.707,4.267-0.853,9.387-5.12,11.093C86.04,231.107,85.187,231.107,84.333,231.107z"/>
		<path style="fill:#FFE100;" d="M64.707,152.6c-4.267,0-7.68-3.413-8.533-6.827c-1.707-9.387-2.56-17.92-3.413-26.453
			c-0.853-4.267,2.56-8.533,7.68-9.387c5.12-0.853,8.533,2.56,9.387,7.68c0.853,5.973,1.707,12.8,2.56,19.627
			c2.56,1.707,3.413,4.267,3.413,6.827c0,5.12-3.413,8.533-8.533,8.533H64.707C65.56,152.6,65.56,152.6,64.707,152.6z"/>
		<path style="fill:#FFE100;" d="M58.733,75.8c-4.267,0-8.533-3.413-8.533-8.533c0-8.533,0-17.067,0.853-27.307
			c0-5.12,4.267-8.533,9.387-7.68c5.12,0,8.533,4.267,7.68,9.387c0,8.533-0.853,17.067-0.853,25.6
			C67.267,72.387,63.853,75.8,58.733,75.8z"/>
		<path style="fill:#FFE100;" d="M417.133,314.733c0,14.507-11.093,25.6-25.6,25.6s-25.6-11.093-25.6-25.6
			c0-14.507,11.093-25.6,25.6-25.6S417.133,300.227,417.133,314.733"/>
		<path style="fill:#FFE100;" d="M451.267,246.467c0,14.507-11.093,25.6-25.6,25.6s-25.6-11.093-25.6-25.6
			c0-14.507,11.093-25.6,25.6-25.6S451.267,231.96,451.267,246.467"/>
		<path style="fill:#FFE100;" d="M476.867,169.667c0,14.507-11.093,25.6-25.6,25.6s-25.6-11.093-25.6-25.6
			c0-14.507,11.093-25.6,25.6-25.6S476.867,155.16,476.867,169.667"/>
		<path style="fill:#FFE100;" d="M92.867,314.733c0,14.507,11.093,25.6,25.6,25.6s25.6-11.093,25.6-25.6
			c0-14.507-11.093-25.6-25.6-25.6S92.867,300.227,92.867,314.733"/>
		<path style="fill:#FFE100;" d="M58.733,246.467c0,14.507,11.093,25.6,25.6,25.6s25.6-11.093,25.6-25.6
			c0-14.507-11.093-25.6-25.6-25.6S58.733,231.96,58.733,246.467"/>
		<path style="fill:#FFE100;" d="M33.133,169.667c0,14.507,11.093,25.6,25.6,25.6s25.6-11.093,25.6-25.6
			c0-14.507-11.093-25.6-25.6-25.6S33.133,155.16,33.133,169.667"/>
		<path style="fill:#FFE100;" d="M24.6,92.867c0,14.507,11.093,25.6,25.6,25.6s25.6-11.093,25.6-25.6s-11.093-25.6-25.6-25.6
			S24.6,78.36,24.6,92.867"/>
		<path style="fill:#FFE100;" d="M34.84,7.533c-0.853,2.56-1.707,5.12-1.707,8.533c0,14.507,11.093,25.6,25.6,25.6
			s25.6-11.093,25.6-25.6c0-2.56,0-5.973-0.853-8.533H34.84z"/>
		<path style="fill:#FFE100;" d="M427.373,7.533c-0.853,2.56-1.707,5.12-1.707,8.533c0,14.507,11.093,25.6,25.6,25.6
			s25.6-11.093,25.6-25.6c0-2.56-0.853-5.973-1.707-8.533H427.373z"/>
		<path style="fill:#FFE100;" d="M434.2,92.867c0,14.507,11.093,25.6,25.6,25.6s25.6-11.093,25.6-25.6s-11.093-25.6-25.6-25.6
			C446.147,67.267,434.2,78.36,434.2,92.867"/>
		<path style="fill:#FFE100;" d="M186.733,383l16.213-12.8c0-1.707,0.853-3.413,0.853-4.267c0-14.507-11.093-25.6-25.6-25.6
			c-14.507,0-25.6,11.093-25.6,25.6s11.093,25.6,25.6,25.6c3.413,0,5.973-0.853,8.533-1.707V383z"/>
		<path style="fill:#FFE100;" d="M331.8,340.333c-14.507,0-25.6,11.093-25.6,25.6c0,1.707,0,3.413,0.853,4.267l16.213,12.8v6.827
			c2.56,0.853,5.12,1.707,8.533,1.707c14.507,0,25.6-11.093,25.6-25.6S346.307,340.333,331.8,340.333"/>
	</g>
	<path d="M391.533,348.867c-18.773,0-34.133-15.36-34.133-34.133c0-18.773,15.36-34.133,34.133-34.133s34.133,15.36,34.133,34.133
		C425.667,333.507,410.307,348.867,391.533,348.867z M391.533,297.667c-9.387,0-17.067,7.68-17.067,17.067
		c0,9.387,7.68,17.067,17.067,17.067s17.067-7.68,17.067-17.067C408.6,305.347,400.92,297.667,391.533,297.667z"/>
	<path d="M425.667,280.6c-18.773,0-34.133-15.36-34.133-34.133s15.36-34.133,34.133-34.133s34.133,15.36,34.133,34.133
		S444.44,280.6,425.667,280.6z M425.667,229.4c-9.387,0-17.067,7.68-17.067,17.067s7.68,17.067,17.067,17.067
		s17.067-7.68,17.067-17.067S435.053,229.4,425.667,229.4z"/>
	<path d="M451.267,203.8c-18.773,0-34.133-15.36-34.133-34.133s15.36-34.133,34.133-34.133s34.133,15.36,34.133,34.133
		S470.04,203.8,451.267,203.8z M451.267,152.6c-9.387,0-17.067,7.68-17.067,17.067s7.68,17.067,17.067,17.067
		s17.067-7.68,17.067-17.067S460.653,152.6,451.267,152.6z"/>
	<path d="M118.467,348.867c-18.773,0-34.133-15.36-34.133-34.133c0-18.773,15.36-34.133,34.133-34.133s34.133,15.36,34.133,34.133
		C152.6,333.507,137.24,348.867,118.467,348.867z M118.467,297.667c-9.387,0-17.067,7.68-17.067,17.067
		c0,9.387,7.68,17.067,17.067,17.067s17.067-7.68,17.067-17.067C135.533,305.347,127.853,297.667,118.467,297.667z"/>
	<path d="M84.333,280.6c-18.773,0-34.133-15.36-34.133-34.133s15.36-34.133,34.133-34.133s34.133,15.36,34.133,34.133
		S103.107,280.6,84.333,280.6z M84.333,229.4c-9.387,0-17.067,7.68-17.067,17.067s7.68,17.067,17.067,17.067
		s17.067-7.68,17.067-17.067S93.72,229.4,84.333,229.4z"/>
	<path d="M58.733,203.8c-18.773,0-34.133-15.36-34.133-34.133s15.36-34.133,34.133-34.133s34.133,15.36,34.133,34.133
		S77.507,203.8,58.733,203.8z M58.733,152.6c-9.387,0-17.067,7.68-17.067,17.067s7.68,17.067,17.067,17.067
		s17.067-7.68,17.067-17.067S68.12,152.6,58.733,152.6z"/>
	<path d="M50.2,127c-18.773,0-34.133-15.36-34.133-34.133S31.427,58.733,50.2,58.733s34.133,15.36,34.133,34.133
		S68.973,127,50.2,127z M50.2,75.8c-9.387,0-17.067,7.68-17.067,17.067s7.68,17.067,17.067,17.067s17.067-7.68,17.067-17.067
		S59.587,75.8,50.2,75.8z"/>
	<path d="M58.733,50.2C39.96,50.2,24.6,34.84,24.6,16.067c0-4.267,0.853-7.68,1.707-11.093C28.013,1.56,31.427-1,34.84-1l0,0h48.64
		c3.413,0,6.827,2.56,7.68,5.973c1.707,3.413,1.707,6.827,1.707,11.093C92.867,34.84,77.507,50.2,58.733,50.2z M41.667,16.067
		c0,9.387,7.68,17.067,17.067,17.067S75.8,25.453,75.8,16.067H41.667z"/>
	<path d="M451.267,50.2c-18.773,0-34.133-15.36-34.133-34.133c0-4.267,0.853-7.68,1.707-11.093C420.547,1.56,423.96-1,427.373-1
		h48.64c3.413,0,6.827,2.56,7.68,5.973C485.4,8.387,485.4,11.8,485.4,16.067C485.4,34.84,470.04,50.2,451.267,50.2z M434.2,16.067
		c0,9.387,7.68,17.067,17.067,17.067s17.067-7.68,17.067-17.067H434.2z"/>
	<path d="M459.8,127c-18.773,0-34.133-15.36-34.133-34.133s15.36-34.133,34.133-34.133s34.133,15.36,34.133,34.133
		S478.573,127,459.8,127z M459.8,75.8c-9.387,0-17.067,7.68-17.067,17.067s7.68,17.067,17.067,17.067s17.067-7.68,17.067-17.067
		S469.187,75.8,459.8,75.8z"/>
	<path d="M255,511c-1.707,0-3.413-0.853-5.12-1.707l-68.267-51.2c-1.707-1.707-3.413-4.267-3.413-6.827V383
		c0-2.56,0.853-5.12,3.413-6.827l68.267-51.2c3.413-2.56,6.827-2.56,10.24,0l68.267,51.2c2.56,1.707,3.413,4.267,3.413,6.827v68.267
		c0,2.56-0.853,5.12-3.413,6.827l-68.267,51.2C259.267,510.147,256.707,511,255,511z M195.267,447L255,492.227L314.733,447v-59.733
		L255,342.04l-59.733,45.227V447z"/>
	<path d="M255,468.333c-1.707,0-3.413-0.853-5.12-1.707l-34.133-25.6c-1.707-1.707-3.413-4.267-3.413-6.827v-34.133
		c0-2.56,0.853-5.12,3.413-6.827l34.133-25.6c3.413-2.56,6.827-2.56,10.24,0l34.133,25.6c2.56,1.707,3.413,4.267,3.413,6.827V434.2
		c0,2.56-0.853,5.12-3.413,6.827l-34.133,25.6C259.267,467.48,256.707,468.333,255,468.333z M229.4,429.933L255,449.56l25.6-19.627
		v-25.6L255,384.707l-25.6,19.627V429.933z"/>
	<path d="M323.267,459.8c-1.707,0-2.56,0-3.413-0.853L285.72,441.88c-4.267-1.707-5.973-6.827-3.413-11.093
		c1.707-4.267,6.827-5.973,11.093-3.413l34.133,17.067c4.267,1.707,5.973,6.827,3.413,11.093
		C330.093,458.093,326.68,459.8,323.267,459.8z"/>
	<path d="M220.867,408.6c-0.853,0-2.56,0-3.413-0.853L183.32,390.68c-4.267-1.707-5.973-6.827-3.413-11.093
		c1.707-4.267,6.827-5.973,11.093-3.413l34.133,17.067c4.267,1.707,5.973,6.827,3.413,11.093
		C227.693,406.893,224.28,408.6,220.867,408.6z"/>
	<path d="M289.133,408.6c-3.413,0-5.973-1.707-7.68-5.12c-1.707-4.267,0-9.387,3.413-11.093L319,375.32
		c4.267-1.707,9.387,0,11.093,3.413c1.707,4.267,0,9.387-3.413,11.093l-34.133,17.067C291.693,408.6,290.84,408.6,289.133,408.6z"/>
	<path d="M186.733,459.8c-3.413,0-5.973-1.707-7.68-5.12c-1.707-4.267,0-9.387,3.413-11.093L216.6,426.52
		c4.267-1.707,9.387,0,11.093,3.413c1.707,4.267,0,9.387-3.413,11.093l-34.133,17.067C189.293,459.8,188.44,459.8,186.733,459.8z"/>
	<path d="M255,511c-5.12,0-8.533-3.413-8.533-8.533V459.8c0-5.12,3.413-8.533,8.533-8.533s8.533,3.413,8.533,8.533v42.667
		C263.533,507.587,260.12,511,255,511z"/>
	<path d="M255,383c-5.12,0-8.533-3.413-8.533-8.533V331.8c0-5.12,3.413-8.533,8.533-8.533s8.533,3.413,8.533,8.533v42.667
		C263.533,379.587,260.12,383,255,383z"/>
	<path d="M178.2,400.067c-18.773,0-34.133-15.36-34.133-34.133S159.427,331.8,178.2,331.8s34.133,15.36,34.133,34.133
		c0,1.707,0,4.267-0.853,5.973c0,1.707-1.707,4.267-3.413,5.12l-12.8,10.24v2.56c0,3.413-2.56,6.827-5.973,7.68
		C185.88,399.213,182.467,400.067,178.2,400.067z M178.2,348.867c-9.387,0-17.067,7.68-17.067,17.067S168.813,383,178.2,383
		c0-2.56,0.853-5.12,3.413-6.827l13.653-10.24l0,0C195.267,356.547,187.587,348.867,178.2,348.867z"/>
	<path d="M331.8,400.067c-3.413,0-7.68-0.853-11.093-1.707c-3.413-0.853-5.973-4.267-5.973-7.68v-2.56l-12.8-10.24
		c-1.707-1.707-2.56-3.413-3.413-5.12c0-1.707-0.853-4.267-0.853-5.973c0-18.773,15.36-34.133,34.133-34.133
		s34.133,15.36,34.133,34.133S350.573,400.067,331.8,400.067z M314.733,365.933l13.653,10.24c2.56,1.707,3.413,4.267,3.413,6.827
		c9.387,0,17.067-7.68,17.067-17.067s-7.68-17.067-17.067-17.067S314.733,356.547,314.733,365.933L314.733,365.933z"/>
	<path d="M315.587,385.56c-1.707,0-3.413-0.853-5.12-1.707L255,342.893l-55.467,41.813c-3.413,2.56-9.387,1.707-11.947-1.707
		c-0.853-2.56-0.853-4.267-0.853-5.973c0-2.56,0.853-5.12,3.413-6.827l5.12-4.267l0,0c0-9.387-7.68-17.067-17.067-17.067
		c-5.973,0-11.093,2.56-14.507,7.68c-1.707,1.707-3.413,3.413-5.973,3.413s-5.12,0-6.827-1.707
		c-6.827-5.973-13.653-12.8-20.48-20.48c-2.56-3.413-2.56-8.533,0-11.093c3.413-3.413,5.12-7.68,5.12-11.947
		c0-11.947-12.8-21.333-24.747-15.36c-4.267,1.707-8.533,0.853-11.093-3.413c-5.12-8.533-9.387-15.36-12.8-23.04
		c-0.853-1.707-0.853-4.267-0.853-6.827c0-2.56,2.56-4.267,4.267-5.12c7.68-1.707,11.093-7.68,11.093-14.507
		c0-11.093-11.093-20.48-23.04-16.213c-2.56,0.853-4.267,0.853-6.827,0c-1.707-0.853-3.413-2.56-4.267-5.12
		c-3.413-10.24-6.827-19.627-9.387-29.013c-0.853-4.267,1.707-8.533,5.973-10.24c7.68-2.56,11.947-8.533,11.947-16.213
		c0-9.387-7.68-17.067-17.067-17.067h-1.707c-4.267,0.853-8.533-2.56-9.387-6.827c-1.707-9.387-2.56-17.92-3.413-26.453
		c-0.853-4.267,2.56-8.533,7.68-9.387c8.533-0.853,15.36-8.533,15.36-17.067c0-9.387-7.68-17.067-17.067-17.067
		c-4.267,0-8.533-3.413-8.533-8.533c0-8.533,0-17.067,0.853-27.307c0-2.56,1.707-5.12,3.413-6.827c2.56-1.707,5.12-1.707,7.68-0.853
		c2.56,0.853,4.267,0.853,5.12,0.853c9.387,0,17.067-7.68,17.067-17.067c0-5.12,3.413-8.533,8.533-8.533
		c5.12,0,8.533,3.413,8.533,8.533c0,18.773-15.36,34.133-34.133,34.133c0,3.413,0,6.827,0,9.387
		c14.507,3.413,25.6,17.067,25.6,33.28c0,14.507-9.387,27.307-22.187,31.573c0,3.413,0.853,7.68,1.707,11.093
		c16.213,2.56,29.013,17.067,29.013,34.133c0,11.947-5.973,23.04-16.213,29.013c1.707,4.267,2.56,9.387,4.267,13.653
		c20.48-1.707,37.547,14.507,37.547,34.133c0,10.24-4.267,19.627-11.947,26.453c1.707,2.56,3.413,5.973,5.12,8.533
		c2.56-0.853,5.12-0.853,6.827-0.853c18.773,0,34.133,15.36,34.133,34.133c0,5.973-1.707,11.947-4.267,17.067
		c2.56,2.56,5.12,5.973,8.533,8.533c5.973-5.12,13.653-7.68,22.187-7.68c14.507,0,27.307,9.387,32.427,23.04l39.253-29.867
		c3.413-2.56,6.827-2.56,10.24,0l39.253,29.867c4.267-13.653,17.067-23.04,32.427-23.04c7.68,0,15.36,2.56,22.187,7.68
		c2.56-2.56,5.12-5.12,8.533-8.533c-2.56-5.12-4.267-11.093-4.267-17.067c0-18.773,15.36-34.133,34.133-34.133
		c2.56,0,5.12,0,6.827,0.853c1.707-2.56,3.413-5.973,5.12-8.533c-7.68-6.827-11.947-16.213-11.947-25.6
		c0-19.627,17.067-35.84,37.547-34.133c1.707-4.267,2.56-9.387,4.267-13.653c-10.24-5.973-16.213-17.067-16.213-29.013
		c0-17.067,12.8-31.573,29.013-34.133c0.853-3.413,0.853-6.827,1.707-11.093c-12.8-5.12-22.187-17.067-22.187-31.573
		c0-16.213,11.093-29.013,25.6-33.28c0-3.413,0-5.973,0-9.387c-18.773,0-34.133-15.36-34.133-34.133c0-5.12,3.413-8.533,8.533-8.533
		c5.12,0,8.533,3.413,8.533,8.533c0,9.387,7.68,17.067,17.067,17.067c1.707,0,3.413,0,5.12-0.853c2.56-0.853,5.12,0,7.68,0.853
		c2.56,1.707,3.413,4.267,3.413,6.827c-0.853,9.387-0.853,17.92-0.853,26.453c0,5.12-3.413,8.533-8.533,8.533
		c-9.387,0-17.067,7.68-17.067,17.067c0,8.533,6.827,16.213,15.36,17.067c4.267,0.853,7.68,4.267,7.68,9.387
		c-0.853,10.24-1.707,18.773-3.413,26.453c-0.853,4.267-5.12,7.68-9.387,6.827h-0.853l0,0c-10.24,0-17.92,7.68-17.92,17.067
		c0,7.68,5.12,13.653,11.947,16.213c4.267,1.707,6.827,5.973,5.973,10.24c-2.56,11.093-5.973,20.48-8.533,29.013
		c-0.853,2.56-2.56,4.267-4.267,5.12c-1.707,0.853-4.267,0.853-6.827,0c-12.8-4.267-23.893,5.12-23.893,16.213
		c0,6.827,3.413,12.8,10.24,15.36c1.707,0.853,3.413,2.56,4.267,5.12c0.853,2.56,0.853,4.267-0.853,6.827
		c-4.267,7.68-8.533,15.36-12.8,23.04c-2.56,3.413-6.827,5.12-11.093,3.413c-11.093-5.973-23.893,2.56-23.893,14.507
		c0,4.267,1.707,8.533,4.267,11.947c2.56,3.413,3.413,8.533,0,11.093c-6.827,7.68-13.653,14.507-20.48,20.48
		c-1.707,1.707-4.267,2.56-6.827,1.707c-2.56,0-4.267-1.707-5.973-3.413c-3.413-5.12-8.533-7.68-14.507-7.68
		c-9.387,0-17.067,7.68-17.067,17.067l5.973,4.267c2.56,1.707,3.413,4.267,3.413,6.827c0,1.707-0.853,3.413-1.707,5.12
		C320.707,384.707,318.147,385.56,315.587,385.56z"/>
</g>
</svg>